{
	"asset":{
		"generator":"Khronos glTF Blender I/O v4.0.44",
		"version":"2.0"
	},
	"scene":0,
	"scenes":[
		{
			"name":"Scene",
			"nodes":[
				0,
				1
			]
		}
	],
	"nodes":[
		{
			"mesh":0,
			"name":"Text",
			"rotation":[
				0.7071068286895752,
				0,
				0,
				0.7071068286895752
			]
		},
		{
			"mesh":1,
			"name":"Text.001",
			"rotation":[
				0.7071068286895752,
				0,
				0,
				0.7071068286895752
			],
			"translation":[
				0,
				-0.9000000357627869,
				0
			]
		}
	],
	"meshes":[
		{
			"name":"Text.001",
			"primitives":[
				{
					"attributes":{
						"POSITION":0,
						"NORMAL":1,
						"TEXCOORD_0":2
					},
					"indices":3
				}
			]
		},
		{
			"name":"Text.002",
			"primitives":[
				{
					"attributes":{
						"POSITION":4,
						"NORMAL":5,
						"TEXCOORD_0":6
					},
					"indices":7
				}
			]
		}
	],
	"accessors":[
		{
			"bufferView":0,
			"componentType":5126,
			"count":5952,
			"max":[
				2.99255633354187,
				0.12999996542930603,
				-0.16094374656677246
			],
			"min":[
				-2.9645001888275146,
				-0.12999999523162842,
				-0.9210547804832458
			],
			"type":"VEC3"
		},
		{
			"bufferView":1,
			"componentType":5126,
			"count":5952,
			"type":"VEC3"
		},
		{
			"bufferView":2,
			"componentType":5126,
			"count":5952,
			"type":"VEC2"
		},
		{
			"bufferView":3,
			"componentType":5123,
			"count":30348,
			"type":"SCALAR"
		},
		{
			"bufferView":4,
			"componentType":5126,
			"count":1844,
			"max":[
				0.8009999394416809,
				0.12999998033046722,
				0.039120495319366455
			],
			"min":[
				-0.8190001249313354,
				-0.12999998033046722,
				-0.7211205363273621
			],
			"type":"VEC3"
		},
		{
			"bufferView":5,
			"componentType":5126,
			"count":1844,
			"type":"VEC3"
		},
		{
			"bufferView":6,
			"componentType":5126,
			"count":1844,
			"type":"VEC2"
		},
		{
			"bufferView":7,
			"componentType":5123,
			"count":9072,
			"type":"SCALAR"
		}
	],
	"bufferViews":[
		{
			"buffer":0,
			"byteLength":71424,
			"byteOffset":0,
			"target":34962
		},
		{
			"buffer":0,
			"byteLength":71424,
			"byteOffset":71424,
			"target":34962
		},
		{
			"buffer":0,
			"byteLength":47616,
			"byteOffset":142848,
			"target":34962
		},
		{
			"buffer":0,
			"byteLength":60696,
			"byteOffset":190464,
			"target":34963
		},
		{
			"buffer":0,
			"byteLength":22128,
			"byteOffset":251160,
			"target":34962
		},
		{
			"buffer":0,
			"byteLength":22128,
			"byteOffset":273288,
			"target":34962
		},
		{
			"buffer":0,
			"byteLength":14752,
			"byteOffset":295416,
			"target":34962
		},
		{
			"buffer":0,
			"byteLength":18144,
			"byteOffset":310168,
			"target":34963
		}
	],
	"buffers":[
		{
			"byteLength":328312,
			"uri":"404.bin"
		}
	]
}
